<mxfile host="app.diagrams.net" agent="Mozilla/5.0 (Windows NT 10.0; Win64; x64) AppleWebKit/537.36 (KHTML, like Gecko) Chrome/139.0.0.0 Safari/537.36" version="28.2.1">
  <diagram name="第 1 页" id="HuWlKfEmvCYeG1ViHDlC">
    <mxGraphModel dx="1426" dy="743" grid="1" gridSize="10" guides="1" tooltips="1" connect="1" arrows="1" fold="1" page="1" pageScale="1" pageWidth="827" pageHeight="1169" math="0" shadow="0">
      <root>
        <mxCell id="0" />
        <mxCell id="1" parent="0" />
        <mxCell id="BCycvucLQnsoWNMiEa99-8" style="edgeStyle=orthogonalEdgeStyle;rounded=0;orthogonalLoop=1;jettySize=auto;html=1;exitX=0.5;exitY=0;exitDx=0;exitDy=0;entryX=0;entryY=0.5;entryDx=0;entryDy=0;" edge="1" parent="1" source="BCycvucLQnsoWNMiEa99-1" target="BCycvucLQnsoWNMiEa99-3">
          <mxGeometry relative="1" as="geometry" />
        </mxCell>
        <mxCell id="BCycvucLQnsoWNMiEa99-1" value="" style="rounded=0;whiteSpace=wrap;html=1;" vertex="1" parent="1">
          <mxGeometry x="80" y="140" width="50" height="20" as="geometry" />
        </mxCell>
        <mxCell id="BCycvucLQnsoWNMiEa99-2" value="" style="rounded=0;whiteSpace=wrap;html=1;" vertex="1" parent="1">
          <mxGeometry x="170" y="140" width="50" height="20" as="geometry" />
        </mxCell>
        <mxCell id="BCycvucLQnsoWNMiEa99-3" value="" style="rounded=0;whiteSpace=wrap;html=1;" vertex="1" parent="1">
          <mxGeometry x="170" y="90" width="50" height="20" as="geometry" />
        </mxCell>
        <mxCell id="BCycvucLQnsoWNMiEa99-4" value="" style="rounded=0;whiteSpace=wrap;html=1;" vertex="1" parent="1">
          <mxGeometry x="260" y="140" width="50" height="20" as="geometry" />
        </mxCell>
        <mxCell id="BCycvucLQnsoWNMiEa99-5" value="" style="endArrow=classic;html=1;rounded=0;exitX=1;exitY=0.5;exitDx=0;exitDy=0;entryX=0;entryY=0.5;entryDx=0;entryDy=0;strokeColor=light-dark(#ff0000, #ededed);" edge="1" parent="1" source="BCycvucLQnsoWNMiEa99-1" target="BCycvucLQnsoWNMiEa99-2">
          <mxGeometry width="50" height="50" relative="1" as="geometry">
            <mxPoint x="390" y="410" as="sourcePoint" />
            <mxPoint x="440" y="360" as="targetPoint" />
          </mxGeometry>
        </mxCell>
        <mxCell id="BCycvucLQnsoWNMiEa99-7" value="" style="endArrow=classic;html=1;rounded=0;exitX=1;exitY=0.5;exitDx=0;exitDy=0;entryX=0;entryY=0.5;entryDx=0;entryDy=0;strokeColor=light-dark(#ff0000, #ededed);" edge="1" parent="1" source="BCycvucLQnsoWNMiEa99-2" target="BCycvucLQnsoWNMiEa99-4">
          <mxGeometry width="50" height="50" relative="1" as="geometry">
            <mxPoint x="310" y="290" as="sourcePoint" />
            <mxPoint x="350" y="290" as="targetPoint" />
          </mxGeometry>
        </mxCell>
        <mxCell id="BCycvucLQnsoWNMiEa99-9" value="" style="rounded=0;whiteSpace=wrap;html=1;dashed=1;dashPattern=8 8;" vertex="1" parent="1">
          <mxGeometry x="100" y="200" width="50" height="20" as="geometry" />
        </mxCell>
        <mxCell id="BCycvucLQnsoWNMiEa99-10" value="" style="rounded=0;whiteSpace=wrap;html=1;dashed=1;dashPattern=8 8;" vertex="1" parent="1">
          <mxGeometry x="180" y="200" width="50" height="20" as="geometry" />
        </mxCell>
        <mxCell id="BCycvucLQnsoWNMiEa99-11" value="" style="rounded=0;whiteSpace=wrap;html=1;dashed=1;dashPattern=8 8;" vertex="1" parent="1">
          <mxGeometry x="250" y="200" width="50" height="20" as="geometry" />
        </mxCell>
        <mxCell id="BCycvucLQnsoWNMiEa99-12" value="" style="endArrow=classic;html=1;rounded=0;exitX=0.5;exitY=1;exitDx=0;exitDy=0;entryX=0.5;entryY=0;entryDx=0;entryDy=0;dashed=1;dashPattern=8 8;strokeColor=light-dark(#00ff00, #ededed);" edge="1" parent="1" source="BCycvucLQnsoWNMiEa99-1" target="BCycvucLQnsoWNMiEa99-9">
          <mxGeometry width="50" height="50" relative="1" as="geometry">
            <mxPoint x="160" y="410" as="sourcePoint" />
            <mxPoint x="210" y="360" as="targetPoint" />
          </mxGeometry>
        </mxCell>
        <mxCell id="BCycvucLQnsoWNMiEa99-14" value="" style="endArrow=classic;html=1;rounded=0;exitX=1;exitY=0.5;exitDx=0;exitDy=0;entryX=0;entryY=0.5;entryDx=0;entryDy=0;dashed=1;dashPattern=8 8;strokeColor=light-dark(#00ff00, #ededed);" edge="1" parent="1" source="BCycvucLQnsoWNMiEa99-9" target="BCycvucLQnsoWNMiEa99-10">
          <mxGeometry width="50" height="50" relative="1" as="geometry">
            <mxPoint x="330" y="320" as="sourcePoint" />
            <mxPoint x="350" y="360" as="targetPoint" />
          </mxGeometry>
        </mxCell>
        <mxCell id="BCycvucLQnsoWNMiEa99-15" value="" style="endArrow=classic;html=1;rounded=0;exitX=1;exitY=0.5;exitDx=0;exitDy=0;entryX=0;entryY=0.5;entryDx=0;entryDy=0;dashed=1;dashPattern=8 8;strokeColor=light-dark(#00ff00, #ededed);" edge="1" parent="1" source="BCycvucLQnsoWNMiEa99-10" target="BCycvucLQnsoWNMiEa99-11">
          <mxGeometry width="50" height="50" relative="1" as="geometry">
            <mxPoint x="340" y="270" as="sourcePoint" />
            <mxPoint x="360" y="310" as="targetPoint" />
          </mxGeometry>
        </mxCell>
        <mxCell id="BCycvucLQnsoWNMiEa99-16" value="" style="endArrow=classic;html=1;rounded=0;exitX=0.5;exitY=0;exitDx=0;exitDy=0;entryX=0.5;entryY=1;entryDx=0;entryDy=0;dashed=1;dashPattern=8 8;strokeColor=light-dark(#00ff00, #ededed);" edge="1" parent="1" source="BCycvucLQnsoWNMiEa99-11" target="BCycvucLQnsoWNMiEa99-4">
          <mxGeometry width="50" height="50" relative="1" as="geometry">
            <mxPoint x="410" y="260" as="sourcePoint" />
            <mxPoint x="430" y="300" as="targetPoint" />
          </mxGeometry>
        </mxCell>
        <mxCell id="BCycvucLQnsoWNMiEa99-17" value="" style="endArrow=classic;html=1;rounded=0;exitX=1;exitY=0.5;exitDx=0;exitDy=0;entryX=0.5;entryY=1;entryDx=0;entryDy=0;dashed=1;dashPattern=8 8;" edge="1" parent="1" source="BCycvucLQnsoWNMiEa99-9" target="BCycvucLQnsoWNMiEa99-2">
          <mxGeometry width="50" height="50" relative="1" as="geometry">
            <mxPoint x="210" y="440" as="sourcePoint" />
            <mxPoint x="260" y="390" as="targetPoint" />
          </mxGeometry>
        </mxCell>
        <mxCell id="BCycvucLQnsoWNMiEa99-18" value="" style="endArrow=classic;html=1;rounded=0;exitX=1;exitY=0.5;exitDx=0;exitDy=0;entryX=0.5;entryY=1;entryDx=0;entryDy=0;dashed=1;dashPattern=8 8;" edge="1" parent="1" source="BCycvucLQnsoWNMiEa99-10" target="BCycvucLQnsoWNMiEa99-4">
          <mxGeometry width="50" height="50" relative="1" as="geometry">
            <mxPoint x="360" y="350" as="sourcePoint" />
            <mxPoint x="405" y="300" as="targetPoint" />
          </mxGeometry>
        </mxCell>
        <mxCell id="BCycvucLQnsoWNMiEa99-19" value="(a) BookInfo" style="text;html=1;align=center;verticalAlign=middle;whiteSpace=wrap;rounded=0;" vertex="1" parent="1">
          <mxGeometry x="157.5" y="230" width="75" height="30" as="geometry" />
        </mxCell>
        <mxCell id="BCycvucLQnsoWNMiEa99-38" value="" style="rounded=0;whiteSpace=wrap;html=1;" vertex="1" parent="1">
          <mxGeometry x="107.5" y="300" width="50" height="20" as="geometry" />
        </mxCell>
        <mxCell id="BCycvucLQnsoWNMiEa99-46" value="" style="rounded=0;whiteSpace=wrap;html=1;" vertex="1" parent="1">
          <mxGeometry x="210" y="340" width="50" height="20" as="geometry" />
        </mxCell>
        <mxCell id="BCycvucLQnsoWNMiEa99-47" value="" style="rounded=0;whiteSpace=wrap;html=1;" vertex="1" parent="1">
          <mxGeometry x="10" y="390" width="50" height="20" as="geometry" />
        </mxCell>
        <mxCell id="BCycvucLQnsoWNMiEa99-48" value="" style="rounded=0;whiteSpace=wrap;html=1;" vertex="1" parent="1">
          <mxGeometry x="70" y="390" width="50" height="20" as="geometry" />
        </mxCell>
        <mxCell id="BCycvucLQnsoWNMiEa99-49" value="" style="rounded=0;whiteSpace=wrap;html=1;" vertex="1" parent="1">
          <mxGeometry x="70" y="430" width="50" height="20" as="geometry" />
        </mxCell>
        <mxCell id="BCycvucLQnsoWNMiEa99-50" value="" style="rounded=0;whiteSpace=wrap;html=1;" vertex="1" parent="1">
          <mxGeometry x="107.5" y="480" width="50" height="20" as="geometry" />
        </mxCell>
        <mxCell id="BCycvucLQnsoWNMiEa99-51" value="" style="rounded=0;whiteSpace=wrap;html=1;" vertex="1" parent="1">
          <mxGeometry x="170" y="450" width="50" height="20" as="geometry" />
        </mxCell>
        <mxCell id="BCycvucLQnsoWNMiEa99-52" value="" style="rounded=0;whiteSpace=wrap;html=1;" vertex="1" parent="1">
          <mxGeometry x="220" y="420" width="50" height="20" as="geometry" />
        </mxCell>
        <mxCell id="BCycvucLQnsoWNMiEa99-53" value="" style="rounded=0;whiteSpace=wrap;html=1;" vertex="1" parent="1">
          <mxGeometry x="320" y="390" width="50" height="20" as="geometry" />
        </mxCell>
        <mxCell id="BCycvucLQnsoWNMiEa99-54" value="" style="rounded=0;whiteSpace=wrap;html=1;" vertex="1" parent="1">
          <mxGeometry x="260" y="390" width="50" height="20" as="geometry" />
        </mxCell>
        <mxCell id="BCycvucLQnsoWNMiEa99-55" value="" style="endArrow=classic;html=1;rounded=0;exitX=0.5;exitY=1;exitDx=0;exitDy=0;entryX=0;entryY=0.5;entryDx=0;entryDy=0;strokeColor=light-dark(#ff0000, #ededed);" edge="1" parent="1" source="BCycvucLQnsoWNMiEa99-38" target="BCycvucLQnsoWNMiEa99-46">
          <mxGeometry width="50" height="50" relative="1" as="geometry">
            <mxPoint x="200" y="410" as="sourcePoint" />
            <mxPoint x="250" y="360" as="targetPoint" />
          </mxGeometry>
        </mxCell>
        <mxCell id="BCycvucLQnsoWNMiEa99-56" value="" style="endArrow=classic;html=1;rounded=0;exitX=0.5;exitY=1;exitDx=0;exitDy=0;entryX=0.5;entryY=0;entryDx=0;entryDy=0;" edge="1" parent="1" source="BCycvucLQnsoWNMiEa99-38" target="BCycvucLQnsoWNMiEa99-47">
          <mxGeometry width="50" height="50" relative="1" as="geometry">
            <mxPoint x="300" y="520" as="sourcePoint" />
            <mxPoint x="320" y="520" as="targetPoint" />
          </mxGeometry>
        </mxCell>
        <mxCell id="BCycvucLQnsoWNMiEa99-57" value="" style="endArrow=classic;html=1;rounded=0;exitX=0.5;exitY=1;exitDx=0;exitDy=0;entryX=0.5;entryY=0;entryDx=0;entryDy=0;" edge="1" parent="1" source="BCycvucLQnsoWNMiEa99-38" target="BCycvucLQnsoWNMiEa99-48">
          <mxGeometry width="50" height="50" relative="1" as="geometry">
            <mxPoint x="150" y="530" as="sourcePoint" />
            <mxPoint x="170" y="530" as="targetPoint" />
          </mxGeometry>
        </mxCell>
        <mxCell id="BCycvucLQnsoWNMiEa99-58" value="" style="endArrow=classic;html=1;rounded=0;entryX=0.5;entryY=0;entryDx=0;entryDy=0;exitX=0.5;exitY=1;exitDx=0;exitDy=0;" edge="1" parent="1" source="BCycvucLQnsoWNMiEa99-38" target="BCycvucLQnsoWNMiEa99-51">
          <mxGeometry width="50" height="50" relative="1" as="geometry">
            <mxPoint x="160" y="360" as="sourcePoint" />
            <mxPoint x="320" y="530" as="targetPoint" />
          </mxGeometry>
        </mxCell>
        <mxCell id="BCycvucLQnsoWNMiEa99-59" value="" style="endArrow=classic;html=1;rounded=0;exitX=0.5;exitY=1;exitDx=0;exitDy=0;entryX=0.5;entryY=0;entryDx=0;entryDy=0;" edge="1" parent="1" source="BCycvucLQnsoWNMiEa99-38" target="BCycvucLQnsoWNMiEa99-52">
          <mxGeometry width="50" height="50" relative="1" as="geometry">
            <mxPoint x="290" y="560" as="sourcePoint" />
            <mxPoint x="310" y="560" as="targetPoint" />
          </mxGeometry>
        </mxCell>
        <mxCell id="BCycvucLQnsoWNMiEa99-60" value="" style="endArrow=classic;html=1;rounded=0;exitX=0.5;exitY=1;exitDx=0;exitDy=0;entryX=1;entryY=0.5;entryDx=0;entryDy=0;" edge="1" parent="1" source="BCycvucLQnsoWNMiEa99-38" target="BCycvucLQnsoWNMiEa99-49">
          <mxGeometry width="50" height="50" relative="1" as="geometry">
            <mxPoint x="380" y="540" as="sourcePoint" />
            <mxPoint x="400" y="540" as="targetPoint" />
          </mxGeometry>
        </mxCell>
        <mxCell id="BCycvucLQnsoWNMiEa99-61" value="" style="endArrow=classic;html=1;rounded=0;exitX=0.5;exitY=1;exitDx=0;exitDy=0;entryX=0.5;entryY=0;entryDx=0;entryDy=0;" edge="1" parent="1" source="BCycvucLQnsoWNMiEa99-38" target="BCycvucLQnsoWNMiEa99-50">
          <mxGeometry width="50" height="50" relative="1" as="geometry">
            <mxPoint x="330" y="540" as="sourcePoint" />
            <mxPoint x="350" y="540" as="targetPoint" />
          </mxGeometry>
        </mxCell>
        <mxCell id="BCycvucLQnsoWNMiEa99-62" value="" style="endArrow=classic;html=1;rounded=0;exitX=0.5;exitY=1;exitDx=0;exitDy=0;entryX=0.5;entryY=0;entryDx=0;entryDy=0;" edge="1" parent="1" source="BCycvucLQnsoWNMiEa99-48" target="BCycvucLQnsoWNMiEa99-49">
          <mxGeometry width="50" height="50" relative="1" as="geometry">
            <mxPoint x="340" y="570" as="sourcePoint" />
            <mxPoint x="360" y="570" as="targetPoint" />
          </mxGeometry>
        </mxCell>
        <mxCell id="BCycvucLQnsoWNMiEa99-63" value="" style="endArrow=classic;html=1;rounded=0;exitX=0.5;exitY=1;exitDx=0;exitDy=0;entryX=1;entryY=0.5;entryDx=0;entryDy=0;" edge="1" parent="1" source="BCycvucLQnsoWNMiEa99-46" target="BCycvucLQnsoWNMiEa99-49">
          <mxGeometry width="50" height="50" relative="1" as="geometry">
            <mxPoint x="310" y="520" as="sourcePoint" />
            <mxPoint x="330" y="520" as="targetPoint" />
          </mxGeometry>
        </mxCell>
        <mxCell id="BCycvucLQnsoWNMiEa99-64" value="" style="endArrow=classic;html=1;rounded=0;exitX=0.5;exitY=1;exitDx=0;exitDy=0;entryX=0.5;entryY=0;entryDx=0;entryDy=0;" edge="1" parent="1" source="BCycvucLQnsoWNMiEa99-46" target="BCycvucLQnsoWNMiEa99-50">
          <mxGeometry width="50" height="50" relative="1" as="geometry">
            <mxPoint x="280" y="520" as="sourcePoint" />
            <mxPoint x="300" y="520" as="targetPoint" />
          </mxGeometry>
        </mxCell>
        <mxCell id="BCycvucLQnsoWNMiEa99-65" value="" style="endArrow=classic;html=1;rounded=0;exitX=0.5;exitY=1;exitDx=0;exitDy=0;entryX=0.5;entryY=0;entryDx=0;entryDy=0;" edge="1" parent="1" source="BCycvucLQnsoWNMiEa99-46" target="BCycvucLQnsoWNMiEa99-51">
          <mxGeometry width="50" height="50" relative="1" as="geometry">
            <mxPoint x="250" y="520" as="sourcePoint" />
            <mxPoint x="270" y="520" as="targetPoint" />
          </mxGeometry>
        </mxCell>
        <mxCell id="BCycvucLQnsoWNMiEa99-66" value="" style="endArrow=classic;html=1;rounded=0;exitX=0.5;exitY=1;exitDx=0;exitDy=0;entryX=0.5;entryY=0;entryDx=0;entryDy=0;" edge="1" parent="1" source="BCycvucLQnsoWNMiEa99-46" target="BCycvucLQnsoWNMiEa99-52">
          <mxGeometry width="50" height="50" relative="1" as="geometry">
            <mxPoint x="300" y="540" as="sourcePoint" />
            <mxPoint x="320" y="540" as="targetPoint" />
          </mxGeometry>
        </mxCell>
        <mxCell id="BCycvucLQnsoWNMiEa99-67" value="" style="endArrow=classic;html=1;rounded=0;exitX=0.5;exitY=1;exitDx=0;exitDy=0;entryX=0.5;entryY=0;entryDx=0;entryDy=0;strokeColor=light-dark(#ff0000, #ededed);" edge="1" parent="1" source="BCycvucLQnsoWNMiEa99-46" target="BCycvucLQnsoWNMiEa99-53">
          <mxGeometry width="50" height="50" relative="1" as="geometry">
            <mxPoint x="290" y="540" as="sourcePoint" />
            <mxPoint x="310" y="540" as="targetPoint" />
          </mxGeometry>
        </mxCell>
        <mxCell id="BCycvucLQnsoWNMiEa99-68" value="" style="endArrow=classic;html=1;rounded=0;exitX=0.5;exitY=1;exitDx=0;exitDy=0;entryX=0.5;entryY=0;entryDx=0;entryDy=0;" edge="1" parent="1" source="BCycvucLQnsoWNMiEa99-46" target="BCycvucLQnsoWNMiEa99-54">
          <mxGeometry width="50" height="50" relative="1" as="geometry">
            <mxPoint x="390" y="540" as="sourcePoint" />
            <mxPoint x="410" y="540" as="targetPoint" />
          </mxGeometry>
        </mxCell>
        <mxCell id="BCycvucLQnsoWNMiEa99-71" value="" style="rounded=0;whiteSpace=wrap;html=1;dashed=1;dashPattern=8 8;" vertex="1" parent="1">
          <mxGeometry x="210" y="300" width="50" height="20" as="geometry" />
        </mxCell>
        <mxCell id="BCycvucLQnsoWNMiEa99-72" value="" style="rounded=0;whiteSpace=wrap;html=1;dashed=1;dashPattern=8 8;" vertex="1" parent="1">
          <mxGeometry x="290" y="310" width="50" height="20" as="geometry" />
        </mxCell>
        <mxCell id="BCycvucLQnsoWNMiEa99-73" value="" style="rounded=0;whiteSpace=wrap;html=1;dashed=1;dashPattern=8 8;" vertex="1" parent="1">
          <mxGeometry x="350" y="350" width="50" height="20" as="geometry" />
        </mxCell>
        <mxCell id="BCycvucLQnsoWNMiEa99-77" value="" style="endArrow=classic;html=1;rounded=0;exitX=1;exitY=0.5;exitDx=0;exitDy=0;entryX=0;entryY=0.5;entryDx=0;entryDy=0;dashed=1;dashPattern=8 8;strokeColor=light-dark(#00ff00, #ededed);" edge="1" parent="1" source="BCycvucLQnsoWNMiEa99-38" target="BCycvucLQnsoWNMiEa99-71">
          <mxGeometry width="50" height="50" relative="1" as="geometry">
            <mxPoint x="240" y="570" as="sourcePoint" />
            <mxPoint x="260" y="610" as="targetPoint" />
          </mxGeometry>
        </mxCell>
        <mxCell id="BCycvucLQnsoWNMiEa99-78" value="" style="endArrow=classic;html=1;rounded=0;exitX=1;exitY=0.5;exitDx=0;exitDy=0;entryX=0;entryY=0.5;entryDx=0;entryDy=0;dashed=1;dashPattern=8 8;strokeColor=light-dark(#00ff00, #ededed);" edge="1" parent="1" source="BCycvucLQnsoWNMiEa99-71" target="BCycvucLQnsoWNMiEa99-72">
          <mxGeometry width="50" height="50" relative="1" as="geometry">
            <mxPoint x="370" y="560" as="sourcePoint" />
            <mxPoint x="390" y="600" as="targetPoint" />
          </mxGeometry>
        </mxCell>
        <mxCell id="BCycvucLQnsoWNMiEa99-79" value="" style="endArrow=classic;html=1;rounded=0;exitX=0.5;exitY=1;exitDx=0;exitDy=0;entryX=0;entryY=0.5;entryDx=0;entryDy=0;dashed=1;dashPattern=8 8;strokeColor=light-dark(#00ff00, #ededed);" edge="1" parent="1" source="BCycvucLQnsoWNMiEa99-72" target="BCycvucLQnsoWNMiEa99-73">
          <mxGeometry width="50" height="50" relative="1" as="geometry">
            <mxPoint x="350" y="580" as="sourcePoint" />
            <mxPoint x="370" y="620" as="targetPoint" />
          </mxGeometry>
        </mxCell>
        <mxCell id="BCycvucLQnsoWNMiEa99-81" value="" style="endArrow=classic;html=1;rounded=0;exitX=0.5;exitY=1;exitDx=0;exitDy=0;entryX=0.5;entryY=0;entryDx=0;entryDy=0;dashed=1;dashPattern=8 8;strokeColor=light-dark(#00ff00, #ededed);" edge="1" parent="1" source="BCycvucLQnsoWNMiEa99-73" target="BCycvucLQnsoWNMiEa99-53">
          <mxGeometry width="50" height="50" relative="1" as="geometry">
            <mxPoint x="380" y="450" as="sourcePoint" />
            <mxPoint x="400" y="490" as="targetPoint" />
          </mxGeometry>
        </mxCell>
        <mxCell id="BCycvucLQnsoWNMiEa99-82" value="" style="endArrow=classic;html=1;rounded=0;exitX=0.5;exitY=1;exitDx=0;exitDy=0;entryX=0.5;entryY=0;entryDx=0;entryDy=0;dashed=1;dashPattern=8 8;" edge="1" parent="1" source="BCycvucLQnsoWNMiEa99-71" target="BCycvucLQnsoWNMiEa99-46">
          <mxGeometry width="50" height="50" relative="1" as="geometry">
            <mxPoint x="280" y="710" as="sourcePoint" />
            <mxPoint x="325" y="660" as="targetPoint" />
          </mxGeometry>
        </mxCell>
        <mxCell id="BCycvucLQnsoWNMiEa99-83" value="" style="endArrow=classic;html=1;rounded=0;exitX=0.5;exitY=1;exitDx=0;exitDy=0;dashed=1;dashPattern=8 8;" edge="1" parent="1" source="BCycvucLQnsoWNMiEa99-72" target="BCycvucLQnsoWNMiEa99-53">
          <mxGeometry width="50" height="50" relative="1" as="geometry">
            <mxPoint x="290" y="660" as="sourcePoint" />
            <mxPoint x="335" y="610" as="targetPoint" />
          </mxGeometry>
        </mxCell>
        <mxCell id="BCycvucLQnsoWNMiEa99-84" value="" style="endArrow=classic;html=1;rounded=0;exitX=1;exitY=0.5;exitDx=0;exitDy=0;dashed=1;dashPattern=8 8;" edge="1" parent="1" source="BCycvucLQnsoWNMiEa99-9">
          <mxGeometry width="50" height="50" relative="1" as="geometry">
            <mxPoint x="270" y="600" as="sourcePoint" />
            <mxPoint x="260" y="150" as="targetPoint" />
          </mxGeometry>
        </mxCell>
        <mxCell id="BCycvucLQnsoWNMiEa99-85" value="" style="endArrow=classic;html=1;rounded=0;exitX=1;exitY=0.5;exitDx=0;exitDy=0;entryX=0.5;entryY=0;entryDx=0;entryDy=0;dashed=1;dashPattern=8 8;" edge="1" parent="1" source="BCycvucLQnsoWNMiEa99-71" target="BCycvucLQnsoWNMiEa99-53">
          <mxGeometry width="50" height="50" relative="1" as="geometry">
            <mxPoint x="300" y="550" as="sourcePoint" />
            <mxPoint x="345" y="500" as="targetPoint" />
          </mxGeometry>
        </mxCell>
        <mxCell id="BCycvucLQnsoWNMiEa99-86" value="(b) Online Boutique" style="text;html=1;align=center;verticalAlign=middle;whiteSpace=wrap;rounded=0;" vertex="1" parent="1">
          <mxGeometry x="127.5" y="520" width="132.5" height="30" as="geometry" />
        </mxCell>
        <mxCell id="BCycvucLQnsoWNMiEa99-87" value="" style="rounded=0;whiteSpace=wrap;html=1;" vertex="1" parent="1">
          <mxGeometry x="60" y="660" width="50" height="20" as="geometry" />
        </mxCell>
        <mxCell id="BCycvucLQnsoWNMiEa99-88" value="" style="rounded=0;whiteSpace=wrap;html=1;" vertex="1" parent="1">
          <mxGeometry x="150" y="560" width="50" height="20" as="geometry" />
        </mxCell>
        <mxCell id="BCycvucLQnsoWNMiEa99-89" value="" style="rounded=0;whiteSpace=wrap;html=1;" vertex="1" parent="1">
          <mxGeometry x="150" y="660" width="50" height="20" as="geometry" />
        </mxCell>
        <mxCell id="BCycvucLQnsoWNMiEa99-90" value="" style="rounded=0;whiteSpace=wrap;html=1;" vertex="1" parent="1">
          <mxGeometry x="150" y="590" width="50" height="20" as="geometry" />
        </mxCell>
        <mxCell id="BCycvucLQnsoWNMiEa99-91" value="" style="rounded=0;whiteSpace=wrap;html=1;" vertex="1" parent="1">
          <mxGeometry x="230" y="590" width="50" height="20" as="geometry" />
        </mxCell>
        <mxCell id="BCycvucLQnsoWNMiEa99-92" value="" style="rounded=0;whiteSpace=wrap;html=1;" vertex="1" parent="1">
          <mxGeometry x="230" y="620" width="50" height="20" as="geometry" />
        </mxCell>
        <mxCell id="BCycvucLQnsoWNMiEa99-93" value="" style="rounded=0;whiteSpace=wrap;html=1;" vertex="1" parent="1">
          <mxGeometry x="230" y="660" width="50" height="20" as="geometry" />
        </mxCell>
        <mxCell id="BCycvucLQnsoWNMiEa99-94" value="" style="rounded=0;whiteSpace=wrap;html=1;dashed=1;dashPattern=8 8;" vertex="1" parent="1">
          <mxGeometry x="90" y="720" width="50" height="20" as="geometry" />
        </mxCell>
        <mxCell id="BCycvucLQnsoWNMiEa99-95" value="" style="rounded=0;whiteSpace=wrap;html=1;dashed=1;dashPattern=8 8;" vertex="1" parent="1">
          <mxGeometry x="160" y="720" width="50" height="20" as="geometry" />
        </mxCell>
        <mxCell id="BCycvucLQnsoWNMiEa99-96" value="" style="rounded=0;whiteSpace=wrap;html=1;dashed=1;dashPattern=8 8;" vertex="1" parent="1">
          <mxGeometry x="230" y="720" width="50" height="20" as="geometry" />
        </mxCell>
        <mxCell id="BCycvucLQnsoWNMiEa99-97" value="" style="endArrow=classic;html=1;rounded=0;exitX=1;exitY=0.5;exitDx=0;exitDy=0;entryX=0;entryY=0.5;entryDx=0;entryDy=0;" edge="1" parent="1" source="BCycvucLQnsoWNMiEa99-87" target="BCycvucLQnsoWNMiEa99-88">
          <mxGeometry width="50" height="50" relative="1" as="geometry">
            <mxPoint x="738" y="540" as="sourcePoint" />
            <mxPoint x="640" y="610" as="targetPoint" />
          </mxGeometry>
        </mxCell>
        <mxCell id="BCycvucLQnsoWNMiEa99-98" value="" style="endArrow=classic;html=1;rounded=0;exitX=1;exitY=0.5;exitDx=0;exitDy=0;entryX=0;entryY=0.5;entryDx=0;entryDy=0;" edge="1" parent="1" source="BCycvucLQnsoWNMiEa99-87" target="BCycvucLQnsoWNMiEa99-90">
          <mxGeometry width="50" height="50" relative="1" as="geometry">
            <mxPoint x="538" y="690" as="sourcePoint" />
            <mxPoint x="440" y="760" as="targetPoint" />
          </mxGeometry>
        </mxCell>
        <mxCell id="BCycvucLQnsoWNMiEa99-99" value="" style="endArrow=classic;html=1;rounded=0;exitX=1;exitY=0.5;exitDx=0;exitDy=0;entryX=0;entryY=0.5;entryDx=0;entryDy=0;strokeColor=light-dark(#ff0000, #ededed);" edge="1" parent="1" source="BCycvucLQnsoWNMiEa99-87" target="BCycvucLQnsoWNMiEa99-89">
          <mxGeometry width="50" height="50" relative="1" as="geometry">
            <mxPoint x="400" y="755" as="sourcePoint" />
            <mxPoint x="440" y="680" as="targetPoint" />
          </mxGeometry>
        </mxCell>
        <mxCell id="BCycvucLQnsoWNMiEa99-100" value="" style="endArrow=classic;html=1;rounded=0;exitX=1;exitY=0.5;exitDx=0;exitDy=0;entryX=0;entryY=0.5;entryDx=0;entryDy=0;" edge="1" parent="1" source="BCycvucLQnsoWNMiEa99-87" target="BCycvucLQnsoWNMiEa99-91">
          <mxGeometry width="50" height="50" relative="1" as="geometry">
            <mxPoint x="380" y="815" as="sourcePoint" />
            <mxPoint x="420" y="740" as="targetPoint" />
          </mxGeometry>
        </mxCell>
        <mxCell id="BCycvucLQnsoWNMiEa99-101" value="" style="endArrow=classic;html=1;rounded=0;exitX=0.5;exitY=0;exitDx=0;exitDy=0;entryX=0.5;entryY=1;entryDx=0;entryDy=0;" edge="1" parent="1" source="BCycvucLQnsoWNMiEa99-89" target="BCycvucLQnsoWNMiEa99-90">
          <mxGeometry width="50" height="50" relative="1" as="geometry">
            <mxPoint x="390" y="775" as="sourcePoint" />
            <mxPoint x="430" y="700" as="targetPoint" />
          </mxGeometry>
        </mxCell>
        <mxCell id="BCycvucLQnsoWNMiEa99-102" value="" style="endArrow=classic;html=1;rounded=0;exitX=0.5;exitY=0;exitDx=0;exitDy=0;entryX=0;entryY=0.5;entryDx=0;entryDy=0;" edge="1" parent="1" source="BCycvucLQnsoWNMiEa99-89" target="BCycvucLQnsoWNMiEa99-91">
          <mxGeometry width="50" height="50" relative="1" as="geometry">
            <mxPoint x="500" y="665" as="sourcePoint" />
            <mxPoint x="540" y="590" as="targetPoint" />
          </mxGeometry>
        </mxCell>
        <mxCell id="BCycvucLQnsoWNMiEa99-103" value="" style="endArrow=classic;html=1;rounded=0;exitX=1;exitY=0.5;exitDx=0;exitDy=0;entryX=0;entryY=0.25;entryDx=0;entryDy=0;" edge="1" parent="1" source="BCycvucLQnsoWNMiEa99-89" target="BCycvucLQnsoWNMiEa99-92">
          <mxGeometry width="50" height="50" relative="1" as="geometry">
            <mxPoint x="480" y="635" as="sourcePoint" />
            <mxPoint x="520" y="560" as="targetPoint" />
          </mxGeometry>
        </mxCell>
        <mxCell id="BCycvucLQnsoWNMiEa99-104" value="" style="endArrow=classic;html=1;rounded=0;exitX=1;exitY=0.5;exitDx=0;exitDy=0;entryX=0;entryY=0.5;entryDx=0;entryDy=0;strokeColor=light-dark(#ff0000, #ededed);" edge="1" parent="1" source="BCycvucLQnsoWNMiEa99-89" target="BCycvucLQnsoWNMiEa99-93">
          <mxGeometry width="50" height="50" relative="1" as="geometry">
            <mxPoint x="580" y="695" as="sourcePoint" />
            <mxPoint x="620" y="620" as="targetPoint" />
          </mxGeometry>
        </mxCell>
        <mxCell id="BCycvucLQnsoWNMiEa99-105" value="" style="endArrow=classic;html=1;rounded=0;exitX=0.5;exitY=1;exitDx=0;exitDy=0;entryX=0.5;entryY=0;entryDx=0;entryDy=0;dashed=1;dashPattern=8 8;strokeColor=light-dark(#00ff00, #ededed);" edge="1" parent="1" source="BCycvucLQnsoWNMiEa99-87" target="BCycvucLQnsoWNMiEa99-94">
          <mxGeometry width="50" height="50" relative="1" as="geometry">
            <mxPoint x="460" y="640" as="sourcePoint" />
            <mxPoint x="512" y="640" as="targetPoint" />
          </mxGeometry>
        </mxCell>
        <mxCell id="BCycvucLQnsoWNMiEa99-106" value="" style="endArrow=classic;html=1;rounded=0;exitX=1;exitY=0.5;exitDx=0;exitDy=0;entryX=0;entryY=0.5;entryDx=0;entryDy=0;dashed=1;dashPattern=8 8;strokeColor=light-dark(#00ff00, #ededed);" edge="1" parent="1" source="BCycvucLQnsoWNMiEa99-94" target="BCycvucLQnsoWNMiEa99-95">
          <mxGeometry width="50" height="50" relative="1" as="geometry">
            <mxPoint x="530" y="740" as="sourcePoint" />
            <mxPoint x="582" y="740" as="targetPoint" />
          </mxGeometry>
        </mxCell>
        <mxCell id="BCycvucLQnsoWNMiEa99-107" value="" style="endArrow=classic;html=1;rounded=0;exitX=1;exitY=0.5;exitDx=0;exitDy=0;entryX=0;entryY=0.5;entryDx=0;entryDy=0;dashed=1;dashPattern=8 8;strokeColor=light-dark(#00ff00, #ededed);" edge="1" parent="1" source="BCycvucLQnsoWNMiEa99-95" target="BCycvucLQnsoWNMiEa99-96">
          <mxGeometry width="50" height="50" relative="1" as="geometry">
            <mxPoint x="470" y="790" as="sourcePoint" />
            <mxPoint x="522" y="790" as="targetPoint" />
          </mxGeometry>
        </mxCell>
        <mxCell id="BCycvucLQnsoWNMiEa99-109" value="" style="endArrow=classic;html=1;rounded=0;exitX=0.5;exitY=0;exitDx=0;exitDy=0;entryX=0.5;entryY=1;entryDx=0;entryDy=0;dashed=1;dashPattern=8 8;strokeColor=light-dark(#00ff00, #ededed);" edge="1" parent="1" source="BCycvucLQnsoWNMiEa99-96" target="BCycvucLQnsoWNMiEa99-93">
          <mxGeometry width="50" height="50" relative="1" as="geometry">
            <mxPoint x="450" y="720" as="sourcePoint" />
            <mxPoint x="502" y="720" as="targetPoint" />
          </mxGeometry>
        </mxCell>
        <mxCell id="BCycvucLQnsoWNMiEa99-110" value="" style="endArrow=classic;html=1;rounded=0;exitX=0.5;exitY=0;exitDx=0;exitDy=0;entryX=0.5;entryY=1;entryDx=0;entryDy=0;dashed=1;dashPattern=8 8;" edge="1" parent="1" source="BCycvucLQnsoWNMiEa99-94" target="BCycvucLQnsoWNMiEa99-89">
          <mxGeometry width="50" height="50" relative="1" as="geometry">
            <mxPoint x="450" y="650" as="sourcePoint" />
            <mxPoint x="495" y="600" as="targetPoint" />
          </mxGeometry>
        </mxCell>
        <mxCell id="BCycvucLQnsoWNMiEa99-111" value="" style="endArrow=classic;html=1;rounded=0;exitX=0.5;exitY=0;exitDx=0;exitDy=0;entryX=0.5;entryY=1;entryDx=0;entryDy=0;dashed=1;dashPattern=8 8;" edge="1" parent="1" source="BCycvucLQnsoWNMiEa99-94" target="BCycvucLQnsoWNMiEa99-93">
          <mxGeometry width="50" height="50" relative="1" as="geometry">
            <mxPoint x="520" y="720" as="sourcePoint" />
            <mxPoint x="565" y="670" as="targetPoint" />
          </mxGeometry>
        </mxCell>
        <mxCell id="BCycvucLQnsoWNMiEa99-113" value="" style="endArrow=classic;html=1;rounded=0;exitX=0.5;exitY=0;exitDx=0;exitDy=0;entryX=0.5;entryY=1;entryDx=0;entryDy=0;dashed=1;dashPattern=8 8;" edge="1" parent="1" source="BCycvucLQnsoWNMiEa99-95" target="BCycvucLQnsoWNMiEa99-93">
          <mxGeometry width="50" height="50" relative="1" as="geometry">
            <mxPoint x="510" y="750" as="sourcePoint" />
            <mxPoint x="650" y="660" as="targetPoint" />
          </mxGeometry>
        </mxCell>
        <mxCell id="BCycvucLQnsoWNMiEa99-114" value="(c) Sock&amp;nbsp; Shop" style="text;html=1;align=center;verticalAlign=middle;whiteSpace=wrap;rounded=0;" vertex="1" parent="1">
          <mxGeometry x="155" y="760" width="85" height="30" as="geometry" />
        </mxCell>
        <mxCell id="BCycvucLQnsoWNMiEa99-115" value="" style="rounded=0;whiteSpace=wrap;html=1;" vertex="1" parent="1">
          <mxGeometry x="57.5" y="890" width="50" height="20" as="geometry" />
        </mxCell>
        <mxCell id="BCycvucLQnsoWNMiEa99-116" value="" style="rounded=0;whiteSpace=wrap;html=1;" vertex="1" parent="1">
          <mxGeometry x="150" y="890" width="50" height="20" as="geometry" />
        </mxCell>
        <mxCell id="BCycvucLQnsoWNMiEa99-117" value="" style="rounded=0;whiteSpace=wrap;html=1;" vertex="1" parent="1">
          <mxGeometry x="150" y="850" width="50" height="20" as="geometry" />
        </mxCell>
        <mxCell id="BCycvucLQnsoWNMiEa99-118" value="" style="rounded=0;whiteSpace=wrap;html=1;" vertex="1" parent="1">
          <mxGeometry x="150" y="930" width="50" height="20" as="geometry" />
        </mxCell>
        <mxCell id="BCycvucLQnsoWNMiEa99-119" value="" style="rounded=0;whiteSpace=wrap;html=1;" vertex="1" parent="1">
          <mxGeometry x="232.5" y="890" width="50" height="20" as="geometry" />
        </mxCell>
        <mxCell id="BCycvucLQnsoWNMiEa99-120" value="" style="rounded=0;whiteSpace=wrap;html=1;dashed=1;dashPattern=8 8;" vertex="1" parent="1">
          <mxGeometry x="90" y="990" width="50" height="20" as="geometry" />
        </mxCell>
        <mxCell id="BCycvucLQnsoWNMiEa99-121" value="" style="rounded=0;whiteSpace=wrap;html=1;dashed=1;dashPattern=8 8;" vertex="1" parent="1">
          <mxGeometry x="160" y="990" width="50" height="20" as="geometry" />
        </mxCell>
        <mxCell id="BCycvucLQnsoWNMiEa99-122" value="" style="rounded=0;whiteSpace=wrap;html=1;dashed=1;dashPattern=8 8;" vertex="1" parent="1">
          <mxGeometry x="232.5" y="990" width="50" height="20" as="geometry" />
        </mxCell>
        <mxCell id="BCycvucLQnsoWNMiEa99-123" value="" style="endArrow=classic;html=1;rounded=0;exitX=1;exitY=0.5;exitDx=0;exitDy=0;entryX=0;entryY=0.5;entryDx=0;entryDy=0;" edge="1" parent="1" source="BCycvucLQnsoWNMiEa99-115" target="BCycvucLQnsoWNMiEa99-117">
          <mxGeometry width="50" height="50" relative="1" as="geometry">
            <mxPoint x="430" y="880" as="sourcePoint" />
            <mxPoint x="470" y="780" as="targetPoint" />
          </mxGeometry>
        </mxCell>
        <mxCell id="BCycvucLQnsoWNMiEa99-124" value="" style="endArrow=classic;html=1;rounded=0;exitX=1;exitY=0.5;exitDx=0;exitDy=0;entryX=0;entryY=0.5;entryDx=0;entryDy=0;" edge="1" parent="1" source="BCycvucLQnsoWNMiEa99-115" target="BCycvucLQnsoWNMiEa99-116">
          <mxGeometry width="50" height="50" relative="1" as="geometry">
            <mxPoint x="240" y="960" as="sourcePoint" />
            <mxPoint x="280" y="860" as="targetPoint" />
          </mxGeometry>
        </mxCell>
        <mxCell id="BCycvucLQnsoWNMiEa99-125" value="" style="endArrow=classic;html=1;rounded=0;exitX=1;exitY=0.5;exitDx=0;exitDy=0;entryX=0;entryY=0.5;entryDx=0;entryDy=0;strokeColor=light-dark(#ff0000, #ededed);" edge="1" parent="1" source="BCycvucLQnsoWNMiEa99-115" target="BCycvucLQnsoWNMiEa99-118">
          <mxGeometry width="50" height="50" relative="1" as="geometry">
            <mxPoint x="520" y="910" as="sourcePoint" />
            <mxPoint x="560" y="810" as="targetPoint" />
          </mxGeometry>
        </mxCell>
        <mxCell id="BCycvucLQnsoWNMiEa99-126" value="" style="endArrow=classic;html=1;rounded=0;exitX=1;exitY=0.5;exitDx=0;exitDy=0;entryX=0;entryY=0.5;entryDx=0;entryDy=0;" edge="1" parent="1" source="BCycvucLQnsoWNMiEa99-117" target="BCycvucLQnsoWNMiEa99-119">
          <mxGeometry width="50" height="50" relative="1" as="geometry">
            <mxPoint x="500" y="970" as="sourcePoint" />
            <mxPoint x="540" y="870" as="targetPoint" />
          </mxGeometry>
        </mxCell>
        <mxCell id="BCycvucLQnsoWNMiEa99-127" value="" style="endArrow=classic;html=1;rounded=0;exitX=1;exitY=0.5;exitDx=0;exitDy=0;entryX=0;entryY=0.5;entryDx=0;entryDy=0;" edge="1" parent="1" source="BCycvucLQnsoWNMiEa99-116" target="BCycvucLQnsoWNMiEa99-119">
          <mxGeometry width="50" height="50" relative="1" as="geometry">
            <mxPoint x="450" y="1000" as="sourcePoint" />
            <mxPoint x="490" y="900" as="targetPoint" />
          </mxGeometry>
        </mxCell>
        <mxCell id="BCycvucLQnsoWNMiEa99-128" value="" style="endArrow=classic;html=1;rounded=0;exitX=1;exitY=0.5;exitDx=0;exitDy=0;entryX=0;entryY=0.5;entryDx=0;entryDy=0;strokeColor=light-dark(#ff0000, #ededed);" edge="1" parent="1" source="BCycvucLQnsoWNMiEa99-118" target="BCycvucLQnsoWNMiEa99-119">
          <mxGeometry width="50" height="50" relative="1" as="geometry">
            <mxPoint x="420" y="980" as="sourcePoint" />
            <mxPoint x="460" y="880" as="targetPoint" />
          </mxGeometry>
        </mxCell>
        <mxCell id="BCycvucLQnsoWNMiEa99-129" value="" style="endArrow=classic;html=1;rounded=0;exitX=0.5;exitY=1;exitDx=0;exitDy=0;entryX=0.5;entryY=0;entryDx=0;entryDy=0;dashed=1;dashPattern=8 8;strokeColor=light-dark(#00ff00, #ededed);" edge="1" parent="1" source="BCycvucLQnsoWNMiEa99-115" target="BCycvucLQnsoWNMiEa99-120">
          <mxGeometry width="50" height="50" relative="1" as="geometry">
            <mxPoint x="500" y="730" as="sourcePoint" />
            <mxPoint x="530" y="770" as="targetPoint" />
          </mxGeometry>
        </mxCell>
        <mxCell id="BCycvucLQnsoWNMiEa99-130" value="" style="endArrow=classic;html=1;rounded=0;exitX=1;exitY=0.5;exitDx=0;exitDy=0;entryX=0;entryY=0.5;entryDx=0;entryDy=0;dashed=1;dashPattern=8 8;strokeColor=light-dark(#00ff00, #ededed);" edge="1" parent="1" source="BCycvucLQnsoWNMiEa99-120" target="BCycvucLQnsoWNMiEa99-121">
          <mxGeometry width="50" height="50" relative="1" as="geometry">
            <mxPoint x="570" y="810" as="sourcePoint" />
            <mxPoint x="600" y="850" as="targetPoint" />
          </mxGeometry>
        </mxCell>
        <mxCell id="BCycvucLQnsoWNMiEa99-131" value="" style="endArrow=classic;html=1;rounded=0;exitX=1;exitY=0.5;exitDx=0;exitDy=0;entryX=0;entryY=0.5;entryDx=0;entryDy=0;dashed=1;dashPattern=8 8;strokeColor=light-dark(#00ff00, #ededed);" edge="1" parent="1" source="BCycvucLQnsoWNMiEa99-121" target="BCycvucLQnsoWNMiEa99-122">
          <mxGeometry width="50" height="50" relative="1" as="geometry">
            <mxPoint x="420" y="860" as="sourcePoint" />
            <mxPoint x="450" y="900" as="targetPoint" />
          </mxGeometry>
        </mxCell>
        <mxCell id="BCycvucLQnsoWNMiEa99-132" value="" style="endArrow=classic;html=1;rounded=0;exitX=0.5;exitY=0;exitDx=0;exitDy=0;entryX=0.5;entryY=1;entryDx=0;entryDy=0;dashed=1;dashPattern=8 8;strokeColor=light-dark(#00ff00, #ededed);" edge="1" parent="1" source="BCycvucLQnsoWNMiEa99-122" target="BCycvucLQnsoWNMiEa99-119">
          <mxGeometry width="50" height="50" relative="1" as="geometry">
            <mxPoint x="430" y="900" as="sourcePoint" />
            <mxPoint x="460" y="940" as="targetPoint" />
          </mxGeometry>
        </mxCell>
        <mxCell id="BCycvucLQnsoWNMiEa99-134" value="" style="endArrow=classic;html=1;rounded=0;exitX=0.5;exitY=0;exitDx=0;exitDy=0;entryX=0.5;entryY=1;entryDx=0;entryDy=0;dashed=1;dashPattern=8 8;" edge="1" parent="1" source="BCycvucLQnsoWNMiEa99-120" target="BCycvucLQnsoWNMiEa99-118">
          <mxGeometry width="50" height="50" relative="1" as="geometry">
            <mxPoint x="340" y="780" as="sourcePoint" />
            <mxPoint x="400" y="740" as="targetPoint" />
          </mxGeometry>
        </mxCell>
        <mxCell id="BCycvucLQnsoWNMiEa99-135" value="" style="endArrow=classic;html=1;rounded=0;exitX=0.5;exitY=0;exitDx=0;exitDy=0;entryX=0.5;entryY=1;entryDx=0;entryDy=0;dashed=1;dashPattern=8 8;" edge="1" parent="1" source="BCycvucLQnsoWNMiEa99-121" target="BCycvucLQnsoWNMiEa99-119">
          <mxGeometry width="50" height="50" relative="1" as="geometry">
            <mxPoint x="500" y="830" as="sourcePoint" />
            <mxPoint x="560" y="790" as="targetPoint" />
          </mxGeometry>
        </mxCell>
        <mxCell id="BCycvucLQnsoWNMiEa99-136" value="" style="endArrow=classic;html=1;rounded=0;exitX=1;exitY=0.5;exitDx=0;exitDy=0;entryX=0.5;entryY=1;entryDx=0;entryDy=0;dashed=1;dashPattern=8 8;" edge="1" parent="1" source="BCycvucLQnsoWNMiEa99-120" target="BCycvucLQnsoWNMiEa99-119">
          <mxGeometry width="50" height="50" relative="1" as="geometry">
            <mxPoint x="670" y="810" as="sourcePoint" />
            <mxPoint x="730" y="770" as="targetPoint" />
          </mxGeometry>
        </mxCell>
        <mxCell id="BCycvucLQnsoWNMiEa99-137" value="(c) Pitstop" style="text;html=1;align=center;verticalAlign=middle;whiteSpace=wrap;rounded=0;" vertex="1" parent="1">
          <mxGeometry x="150" y="1040" width="85" height="30" as="geometry" />
        </mxCell>
      </root>
    </mxGraphModel>
  </diagram>
</mxfile>
